<?xml version="1.0" standalone="no"?>
<!DOCTYPE svg PUBLIC "-//W3C//DTD SVG 20010904//EN"
 "http://www.w3.org/TR/2001/REC-SVG-20010904/DTD/svg10.dtd">
<svg version="1.0" xmlns="http://www.w3.org/2000/svg"
 width="512.000000pt" height="512.000000pt" viewBox="0 0 512.000000 512.000000"
 preserveAspectRatio="xMidYMid meet">
<metadata>
Created by potrace 1.14, written by Peter Selinger 2001-2017
</metadata>
<g transform="translate(0.000000,512.000000) scale(0.100000,-0.100000)"
fill="#000000" stroke="none">
<path d="M2236 5064 c-747 -96 -1415 -524 -1821 -1169 -71 -112 -182 -338
-230 -469 -65 -178 -125 -442 -141 -626 l-6 -76 663 -273 c365 -151 671 -276
680 -278 9 -3 54 13 100 35 88 42 204 72 286 72 l48 1 305 444 305 444 7 86
c20 230 105 425 257 587 204 219 500 330 792 298 327 -36 609 -231 756 -525
214 -424 69 -959 -329 -1219 -150 -97 -283 -143 -448 -153 l-95 -5 -441 -315
-441 -315 -11 -92 c-32 -258 -173 -457 -399 -562 -111 -52 -189 -67 -323 -61
-87 4 -133 11 -188 30 -212 74 -373 236 -441 448 l-21 64 -477 197 c-263 108
-479 195 -481 193 -9 -8 101 -278 163 -400 367 -725 1037 -1216 1850 -1357
177 -31 608 -33 780 -5 526 88 988 316 1365 674 641 609 909 1498 719 2381
-45 210 -150 482 -263 682 -356 628 -979 1085 -1676 1229 -248 52 -599 66
-844 35z"/>
<path d="M3232 3816 c-82 -21 -211 -89 -274 -146 -116 -103 -199 -271 -213
-428 -21 -256 127 -514 360 -627 321 -156 700 -22 855 300 49 103 64 169 63
280 -1 273 -167 504 -431 603 -55 20 -89 26 -187 28 -78 2 -139 -1 -173 -10z
m239 -156 c180 -33 339 -189 378 -368 46 -217 -62 -432 -266 -530 -77 -36 -80
-37 -198 -37 -117 0 -122 1 -195 36 -135 65 -226 172 -262 308 -44 172 4 343
133 466 113 108 261 153 410 125z"/>
<path d="M1725 2124 c-11 -2 -44 -9 -72 -15 -29 -6 -55 -14 -57 -18 -3 -4 76
-41 175 -81 198 -83 255 -119 312 -200 52 -75 70 -144 65 -244 -10 -187 -139
-332 -325 -366 -90 -16 -153 -1 -350 80 -92 38 -169 68 -171 66 -6 -7 17 -47
59 -103 50 -67 151 -138 242 -171 62 -23 88 -26 182 -26 126 1 198 22 298 88
378 251 287 840 -150 969 -56 17 -175 29 -208 21z"/>
</g>
</svg>
